<svg version="1.0" id="Layer_1" xmlns="http://www.w3.org/2000/svg" xmlns:xlink="http://www.w3.org/1999/xlink" x="0px" y="0px"
	 viewBox="0 0 600 600" style="enable-background:new 0 0 600 600;" xml:space="preserve">
<style type="text/css">
	.st0{opacity: 0.6;}
	.st1{opacity: 0.4;}
</style>
<g>
	<circle cx="300" cy="300" r="300"/>
</g>
<g>
	<g>
		<path class="white st0" d="M260.2,257.1v-16.3c-5.5-0.7-11-1.2-16.6-1.2C175.4,239.6,120,295,120,363.1c0,41.8,20.9,78.8,52.7,101.1
			c-20.6-22.1-32.8-51.6-32.8-84.1C140,313,193.4,258.7,260.2,257.1z"/>
		<path class="white st0" d="M263.1,436.9c30.4,0,55.5-24.5,56.7-54.6l0.3-268.6l48.7,0l-0.1-0.4c-1-5.5-1.6-11.2-1.6-17h-67.1l-0.1,269
			c-1.1,30.1-25.9,54.3-56.3,54.3c-9.4,0-18.3-2.4-26.2-6.5C227.6,427.3,244.3,436.9,263.1,436.9z"/>
		<path class="white st0" d="M460.4,205.4v-15.8c-18.7,0-36.2-5.6-50.8-15.1C422.6,189.5,440.3,201.1,460.4,205.4z"/>
		<path class="white st1" d="M409.6,174.5c-14.3-16.4-23-37.8-23-61.2h-18.3C373.1,138.9,388.6,160.8,409.6,174.5z"/>
		<path class="white st1" d="M243.5,306.2c-31.1,0-56.8,25.8-56.8,56.9c0,21.7,12.7,40.5,30.6,49.9c-6.7-9.3-10.7-20.6-10.7-32.9
			c0-31.1,25.3-56.4,56.4-56.4c5.8,0,11.4,1,16.6,2.6v-68.5c-5.5-0.7-11-1.2-16.6-1.2c-1,0-1.9,0.1-2.9,0.1l-0.3,0l-0.2,51.9
			C254.5,306.9,249.3,306.2,243.5,306.2z"/>
		<path class="white st1" d="M460.4,204.6l-0.3-0.1l0,51.8c-34.8,0-67.1-11.5-93.5-30.3l0,137.1c0,68.1-55,123.2-123.1,123.2
			c-26.3,0-50.7-8-70.8-22c22.6,24.2,54.7,39.4,90.4,39.4c68.1,0,123.5-55.4,123.5-123.5V243.8c26.3,18.9,58.6,30,93.4,30v-67.1
			C473.3,206.7,466.7,206,460.4,204.6z"/>
		<path class="white" d="M367.1,363.1V226.8c26.3,18.9,58.6,30,93.4,30v-52.2c-20.1-4.3-37.8-15.1-50.8-30.1
			c-21-13.7-36.2-35.6-40.9-61.2h-49.1l-0.1,269c-1.1,30.1-25.9,54.3-56.3,54.3c-18.8,0-35.5-9.3-45.7-23.5
			c-18-9.5-30.2-28.3-30.2-49.9c0-31.1,25.3-56.4,56.4-56.4c5.8,0,11.4,1,16.6,2.6v-52.6c-66.8,1.6-120.6,56.3-120.6,123.5
			c0,32.5,12.6,62,33.2,84.1c20.1,14.1,44.5,22.4,70.8,22.4C311.6,486.7,367.1,431.3,367.1,363.1z"/>
	</g>
</g>
</svg>
