<svg version="1.0" id="Layer_1" xmlns="http://www.w3.org/2000/svg" xmlns:xlink="http://www.w3.org/1999/xlink" x="0px" y="0px"viewBox="0 0 396.5 277.8" style="enable-background:new 0 0 396.5 277.8;" xml:space="preserve">
	<path d="M388.1,43.4c-4.6-17.1-17.7-30.4-35-35C322.4,0,198.1,0,198.1,0S74.2,0,43.4,8.4C26.4,13,13,26.4,8.1,43.4 C0,74.2,0,138.7,0,138.7s0,64.6,8.1,95.6c4.9,16.8,18.2,30.4,35.3,35c30.7,8.4,154.7,8.4,154.7,8.4s124.3,0,155-8.4 c17.4-4.6,30.4-18.2,35-35c8.4-31,8.4-95.6,8.4-95.6S396.5,74.2,388.1,43.4z M158.7,198.4v-119l102.8,59.4L158.7,198.4z"/>
</svg>
